<?xml version="1.0" encoding="UTF-8"?>
<svg id="Layer_1" xmlns="http://www.w3.org/2000/svg" version="1.1" viewBox="0 0 84.44 75.77">
  <!-- Generator: Adobe Illustrator 29.4.0, SVG Export Plug-In . SVG Version: 2.1.0 Build 152)  -->
  <defs>
    <style>
      .st0 {
        fill: #a78b65;
      }

      .st1 {
        fill: #f7be72;
      }

      .st2 {
        fill: #c43333;
      }
    </style>
  </defs>
  <path class="st0" d="M83.74,70.73h-1c-.7-2.9-2.5-9.3-4-14.4-.8-2.9-1.5-5.3-1.9-6.5-.2-.8-.5-1.5-.9-2.2,1-.5,1.9-1.3,2.5-2.1s.8-1.7.7-2.4c-.4-1.7-2.3-3.4-5.8-3.4-.6,0-1.3.1-2,.2-3.7.6-5.6,2.2-5.5,4.9.2,1.6,1.6,2.9,3.6,3.5-.1.2-.1.3-.2.5-2.8,8.7-7.5,20.4-8.1,22h-.5v-.1c-2.6-4.7-4.1-7.1-7.3-12.6l-.1-.2c-1.9-3.1-3.4-5.6-5.4-5.6h0c-1.1,0-2.2.8-3.3,2.3-.1-.2-.2-.4-.2-.6l-.8-1.8c-1.7-4-3.4-6-5.2-6.1-1.5,0-2.8,1.2-3.9,3.7-.4.9-.8,1.8-1.2,2.7l-.7-1.7c-1.8-4.3-3.6-6.4-5.4-6.4-1.6,0-2.9,1.3-4.1,4-.7,1.5-1.4,3.2-2.1,5-.8-3.3-1.5-6.1-1.8-7.3-.2-.9-.6-1.8-1.1-2.5,2.6-1.1,3.5-2.7,2.8-5-.5-1.9-2.5-3.1-5.2-3.1-.8,0-1.7.1-2.5.3-2.1.6-4,2.1-4.9,3.8-.5.9-.6,1.8-.3,2.5.4,1,1.6,2.1,3.7,2.5-.1.1-.1.3-.2.5-2.8,8.7-7.5,23.7-8.1,25.6h-1.8c-.4,0-.7.3-.7.7s.3.7.7.7h82.2c.4,0,.7-.3.7-.7s-.3-.7-.7-.7h0ZM67.34,44.63c0-1.2.4-2.8,4.3-3.4.6-.1,1.2-.1,1.8-.1,2.7,0,4.2,1.2,4.4,2.3.1.3-.1.8-.4,1.3-.7,1-2.4,2.2-4.4,2.5-.3,0-.7.1-1,.1-2.5-.1-4.5-1.3-4.7-2.7ZM70.74,49.23c.1-.2.1-.4.2-.6.3,0,.7.1,1.1.1s.8,0,1.2-.1c.6-.1,1.1-.2,1.6-.4.3.6.6,1.3.8,2,.3,1.2,1,3.7,1.9,6.6,1.4,4.9,3.2,11,3.9,14h-18.7c1.2-2.9,5.4-13.6,8-21.6ZM47.74,53.63c1.2,0,2.7,2.4,4.2,4.9l.1.2c3.1,5.2,4.6,7.7,7,12h-18.5c-.5-1.2-.9-2.4-1.4-3.6,1.5-3,3.5-6.9,5.9-10.8,1.1-1.8,2-2.7,2.7-2.7ZM35.74,50.43c.9-1.9,1.8-2.9,2.6-2.9h0c.5,0,1.9.5,3.9,5.2l.8,1.8c.2.5.4,1,.6,1.5-2,3.4-3.7,6.7-5.1,9.4v.1c-1.7-4.4-3.3-8.1-4.5-11,.5-1.5,1.1-2.9,1.7-4.1ZM24.24,49.03c.9-2,1.9-3.1,2.8-3.1h0c.7,0,2.2.8,4.1,5.5l.8,2c1.7,4,4,9.8,7,17.3H15.84c1-2.8,4.9-14,8.4-21.7ZM9.24,41.63c-.1-.3,0-.8.2-1.3.6-1.1,2.1-2.5,4-3.1.7-.2,1.4-.3,2.1-.3,2,0,3.5.8,3.8,2,.4,1.5.4,2.8-3.8,3.9-1,.3-2,.4-2.9.4-2,.1-3.1-.8-3.4-1.6ZM12.74,45.53c.1-.3.2-.6.3-.8.9,0,1.9-.2,3-.5.2-.1.4-.1.5-.2.4.7.8,1.5,1.1,2.4.4,1.4,1.3,5,2.2,9.2-2.7,6.9-5.1,13.8-5.6,15H4.64c1.1-3,5.5-16.8,8.1-25.1Z"/>
  <path class="st2" d="M29.81,2.93c-5.7,0-10.3,4.6-10.3,10.3.1,6.2,7.6,11.1,10,12.5.1.1.2.1.4.1.1,0,.2,0,.3-.1,3.7-1.9,9.9-6.7,9.9-12.5s-4.6-10.3-10.3-10.3ZM29.81,24.23c-2.5-1.5-8.8-5.9-8.8-11,0-4.8,4-8.8,8.8-8.8s8.8,4,8.8,8.8-5.4,9.1-8.8,11Z"/>
  <path class="st2" d="M32.21,26.63h-4.6c-.4,0-.7.3-.7.7v4.6c0,.4.3.7.7.7h4.6c.4,0,.7-.3.7-.7v-4.6c0-.4-.3-.7-.7-.7ZM31.51,31.33h-3.2v-3.2h3.2v3.2Z"/>
  <path class="st1" d="M55.41,25.83c-4.1,0-7.4,3.3-7.4,7.4-.1,4.4,5.3,7.9,7,8.9.1.1.2.1.4.1.1,0,.2,0,.3-.1,2.6-1.4,7.1-4.8,7.1-8.9s-3.3-7.4-7.4-7.4ZM55.31,40.63c-2.9-1.8-6-4.7-6-7.4.1-3.3,2.8-5.9,6-5.9s5.9,2.7,5.9,5.9c0,2.9-3,5.8-5.9,7.4Z"/>
  <path class="st1" d="M57.01,43.03h-3.2v-.1c-.4,0-.7.3-.7.7v3.2c0,.4.3.7.7.7h3.2c.4,0,.7-.3.7-.7v-3.1c0-.4-.3-.7-.7-.7ZM56.31,46.23h-1.8v-1.8h1.8v1.8Z"/>
</svg>